<?xml version="1.0" encoding="UTF-8" standalone="no"?><svg xmlns="http://www.w3.org/2000/svg" viewBox="0 0 127.783 150"><g style="fill:#b3b3b3"><path d="M368.016 186.352c-.184.144-.422.273-.61.418a84.856 84.856 0 0 1-5.789 3.91c-.328.199-.687.39-1.015.593a115.985 115.985 0 0 1-5.883 3.239l-1.672.863c-2.36 1.168-4.8 2.305-7.39 3.41l-1.528.621c-2.274.946-4.617 1.86-7.031 2.746l-1.977.727a246.637 246.637 0 0 1-8.746 2.914l-2.023.605c-2.618.801-5.282 1.547-8 2.29-.72.19-1.422.39-2.145.578-3.2.847-6.496 1.644-9.894 2.398-.801.184-1.602.352-2.403.527a380.67 380.67 0 0 1-8.972 1.887l-2.13.426a409.252 409.252 0 0 1-10.808 1.93c-.887.152-1.793.285-2.687.43-3.2.519-6.489 1.015-9.793 1.48l-1.977.281c-3.79.531-7.621 1.008-11.488 1.43l-2.91.32c-3.543.387-7.106.742-10.696 1.074l-1.457.137c-4 .352-8 .644-12 .918l-2.976.223c-3.809.242-7.621.449-11.442.625l-.949.046c-4.082.176-8.164.313-12.25.403l-2.992.062c-4.117.082-8.238.137-12.352.137-4.11 0-8.23-.055-12.351-.137l-2.992-.062c-4.09-.098-8.172-.23-12.247-.403l-.953-.046a649.573 649.573 0 0 1-11.441-.625l-2.992-.2c-4-.27-8-.566-12-.918l-1.453-.136c-3.59-.325-7.157-.684-10.7-1.075l-2.91-.32a636.191 636.191 0 0 1-11.488-1.43l-2.008-.25c-3.305-.46-6.558-.957-9.793-1.476-.894-.145-1.8-.281-2.687-.434-3.66-.61-7.262-1.25-10.809-1.93l-2.129-.421a380.548 380.548 0 0 1-8.973-1.89c-.8-.177-1.601-.345-2.402-.528a344.055 344.055 0 0 1-9.894-2.399c-.72-.183-1.426-.382-2.145-.578a311.64 311.64 0 0 1-8-2.285l-2.023-.61a241.492 241.492 0 0 1-8.746-2.91l-1.973-.73c-2.418-.883-4.762-1.8-7.035-2.742l-1.528-.625a150.477 150.477 0 0 1-7.39-3.406l-1.672-.868c-2.05-1.054-4-2.132-5.883-3.238-.324-.2-.687-.39-1.016-.594-2.062-1.27-4-2.574-5.789-3.91-.183-.144-.425-.273-.609-.418V272c0 20.04 70 48 184 48s184-27.96 184-48zm0 0" style="fill:#b3b3b3" transform="scale(.34722)"/><path d="M368.016 298.352c-.184.144-.422.273-.61.418a84.856 84.856 0 0 1-5.789 3.91c-.328.199-.687.39-1.015.593a115.985 115.985 0 0 1-5.883 3.239l-1.672.863c-2.36 1.168-4.8 2.305-7.39 3.41l-1.528.621c-2.274.946-4.617 1.86-7.031 2.746l-1.977.727a246.637 246.637 0 0 1-8.746 2.914l-2.023.605c-2.618.801-5.282 1.547-8 2.29-.72.19-1.422.39-2.145.578a250.28 250.28 0 0 1-9.894 2.398c-.801.184-1.602.352-2.403.527a380.72 380.72 0 0 1-8.972 1.887l-2.13.426c-3.542.676-7.144 1.32-10.808 1.93-.887.152-1.793.285-2.687.43-3.2.519-6.489 1.015-9.793 1.48l-1.977.281c-3.79.531-7.621 1.008-11.488 1.43l-2.91.32c-3.543.387-7.106.742-10.696 1.074l-1.457.137c-4 .352-8 .644-12 .918l-2.976.223c-3.809.242-7.621.449-11.442.625l-.949.046c-4.082.176-8.164.313-12.25.403l-2.992.062c-4.117.082-8.238.137-12.352.137-4.11 0-8.23-.055-12.351-.137l-2.992-.062c-4.09-.098-8.172-.23-12.247-.403l-.953-.046a649.573 649.573 0 0 1-11.441-.625l-2.992-.2c-4-.27-8-.566-12-.918l-1.453-.136c-3.59-.325-7.157-.684-10.7-1.075l-2.91-.32a636.28 636.28 0 0 1-11.488-1.43l-2.008-.25c-3.305-.46-6.558-.957-9.793-1.476-.894-.145-1.8-.281-2.687-.434-3.66-.61-7.262-1.25-10.809-1.93l-2.129-.421a329.28 329.28 0 0 1-8.973-1.89c-.8-.177-1.601-.345-2.402-.528a344.021 344.021 0 0 1-9.894-2.399c-.72-.183-1.426-.382-2.145-.578a311.64 311.64 0 0 1-8-2.285l-2.023-.61a220.597 220.597 0 0 1-8.746-2.91l-1.973-.73c-2.418-.883-4.762-1.8-7.035-2.742l-1.528-.625a150.477 150.477 0 0 1-7.39-3.406l-1.672-.868c-2.05-1.054-4-2.132-5.883-3.238-.324-.2-.687-.39-1.016-.594-2.062-1.27-4-2.574-5.789-3.91-.183-.144-.425-.273-.609-.418V384c0 20.04 70 48 184 48s184-27.96 184-48zM368.016 74.352c-.184.144-.422.273-.61.418a84.856 84.856 0 0 1-5.789 3.91c-.328.199-.687.39-1.015.593a91.601 91.601 0 0 1-5.883 3.2l-1.672.863c-2.36 1.168-4.8 2.305-7.39 3.406l-1.528.625c-2.274.945-4.617 1.86-7.031 2.746l-1.977.727a246.617 246.617 0 0 1-8.746 2.914l-2.023.605c-2.618.801-5.282 1.543-8 2.29-.72.19-1.422.39-2.145.574a250.21 250.21 0 0 1-9.894 2.402c-.801.184-1.602.352-2.403.527a380.67 380.67 0 0 1-8.972 1.887l-2.13.426A393.907 393.907 0 0 1 280 104.39c-.887.152-1.793.289-2.687.433-3.2.52-6.489 1.016-9.793 1.48l-1.977.282c-3.79.531-7.621 1.008-11.488 1.43l-2.91.32c-3.543.383-7.106.742-10.696 1.07l-1.457.137c-4 .352-8 .648-12 .922l-2.976.262c-3.809.242-7.621.449-11.442.625l-.949.046c-4.082.176-8.164.313-12.25.403l-2.992.062c-4.117.082-8.238.137-12.352.137-4.11 0-8.23-.055-12.351-.137l-2.992-.062c-4.09-.098-8.172-.23-12.247-.403l-.953-.046a649.573 649.573 0 0 1-11.441-.625l-2.992-.2c-4-.27-8-.566-12-.918l-1.453-.136c-3.59-.325-7.157-.684-10.7-1.075l-2.91-.32a636.28 636.28 0 0 1-11.488-1.43l-2.008-.25c-3.305-.46-6.558-.957-9.793-1.476-.894-.145-1.8-.281-2.687-.434-3.66-.61-7.262-1.25-10.809-1.93l-2.129-.421a380.548 380.548 0 0 1-8.973-1.89c-.8-.177-1.601-.345-2.402-.528a344.031 344.031 0 0 1-9.894-2.399c-.72-.183-1.426-.382-2.145-.578a311.632 311.632 0 0 1-8-2.285l-2.023-.61a241.492 241.492 0 0 1-8.746-2.91l-1.973-.73a177.47 177.47 0 0 1-7.035-2.742l-1.528-.625a150.478 150.478 0 0 1-7.39-3.406l-1.672-.868c-2.05-1.054-4-2.132-5.883-3.199-.324-.199-.687-.39-1.016-.59A79.435 79.435 0 0 1 .61 74.863c-.183-.144-.425-.27-.609-.414V160c0 20 70 48 184 48s184-28 184-48zm0 0" style="fill:#b3b3b3" transform="scale(.34722)"/><path d="M368.016 48c0-26.508-82.38-48-184-48-101.621 0-184 21.492-184 48s82.379 48 184 48c101.62 0 184-21.492 184-48zm0 0" style="fill:#b3b3b3" transform="scale(.34722)"/></g><g fill="none" style="display:inline"><path d="M34.94 130.434 14.963 95.79a10.393 10.393 0 0 1 0-10.373L34.94 50.8a10.383 10.383 0 0 1 8.986-5.195H83.85c3.706 0 7.147 1.977 8.986 5.195l19.984 34.635a10.393 10.393 0 0 1 0 10.372L92.844 130.45a10.383 10.383 0 0 1-8.986 5.195H43.951a10.474 10.474 0 0 1-9.012-5.211z" fill="#fff"/><path d="M36.642 128.08 17.857 95.499a9.742 9.742 0 0 1 0-9.756l18.785-32.59a9.782 9.782 0 0 1 8.464-4.886h37.57a9.772 9.772 0 0 1 8.465 4.886l18.802 32.573a9.742 9.742 0 0 1 0 9.756L91.15 128.089a9.782 9.782 0 0 1-8.464 4.886H45.123a9.797 9.797 0 0 1-8.48-4.895Z" fill="#7c4dff"/><path d="M44.97 84.348h38.657a.871.871 0 0 0 .873-.873v-7.25c0-4.818-3.911-8.728-8.73-8.728H52.56c-6.752-.009-12.22 5.46-12.22 12.212a4.613 4.613 0 0 0 4.63 4.639zm3.79 32.024h23.1c6.974 0 12.64-5.665 12.64-12.64a4.217 4.217 0 0 0-4.22-4.22H41.179a.834.834 0 0 0-.838.84v7.582c-.009 4.664 3.774 8.438 8.42 8.438z" fill="#f7f7f7"/><path d="m42.051 83.39 28.833 28.832a4.88 4.88 0 0 0 6.906 0l4.998-4.998a4.88 4.88 0 0 0 0-6.907L53.964 71.485a4.881 4.881 0 0 0-6.906 0l-4.998 4.998a4.858 4.858 0 0 0-.009 6.906z" fill="#f7f7f7"/><path fill="#444" opacity=".3" d="M71.354 112.71 54.418 99.512h3.748zM53.485 71.005l13.342 13.342h4.527z"/></g></svg>